<svg xmlns="http://www.w3.org/2000/svg" width="21" height="18" viewBox="0 0 21 18"><g transform="translate(0 -34.55)"><path d="M19.824,42.378h-.5v-3A2.223,2.223,0,0,0,17.1,37.161h-.461l0-1.114a1.5,1.5,0,0,0-1.5-1.5H1.822A1.821,1.821,0,0,0,0,36.344v14.71a1.5,1.5,0,0,0,1.5,1.5H17.107a2.223,2.223,0,0,0,2.222-2.219v-3h.5A1.172,1.172,0,0,0,21,46.159V43.548A1.178,1.178,0,0,0,19.824,42.378Zm-18-6.8H15.147a.465.465,0,0,1,.465.46l0,1.118H1.822a.789.789,0,0,1,0-1.578ZM18.291,50.326A1.19,1.19,0,0,1,17.1,51.513H1.494a.466.466,0,0,1-.465-.465V38.012a1.816,1.816,0,0,0,.792.181H17.1a1.19,1.19,0,0,1,1.189,1.187v3H14.764a1.172,1.172,0,0,0-1.171,1.17v2.611a1.172,1.172,0,0,0,1.171,1.17h3.527v3Zm1.671-4.168a.136.136,0,0,1-.138.138H14.768a.136.136,0,0,1-.138-.138V43.548a.139.139,0,0,1,.138-.138h5.056a.139.139,0,0,1,.138.138v2.611Z" transform="translate(0 0)" fill="#19647e"/></g></svg>