<svg xmlns="http://www.w3.org/2000/svg" width="21" height="22.004" viewBox="0 0 21 22.004"><g transform="translate(-12)"><path d="M153.446,156.929a3.8,3.8,0,1,1,3.8-3.8A3.8,3.8,0,0,1,153.446,156.929Zm0-6.457a2.659,2.659,0,1,0,2.659,2.659A2.662,2.662,0,0,0,153.446,150.472Z" transform="translate(-130.947 -142.128)" fill="#19647e"/><path d="M24.024,22h-3.05a1.59,1.59,0,0,1-1.541-1.239l-.386-1.716a8.426,8.426,0,0,1-1.792-1.041l-1.671.528a1.589,1.589,0,0,1-1.856-.723l-1.52-2.628a1.6,1.6,0,0,1,.294-1.957l1.3-1.191A9.277,9.277,0,0,1,13.74,11,9.474,9.474,0,0,1,13.8,9.967L12.51,8.782A1.6,1.6,0,0,1,12.2,6.828l1.529-2.645a1.589,1.589,0,0,1,1.848-.717l1.674.529a8.436,8.436,0,0,1,1.792-1.041l.387-1.718A1.589,1.589,0,0,1,20.975,0h3.05a1.59,1.59,0,0,1,1.541,1.239l.386,1.716A8.426,8.426,0,0,1,27.743,4l1.671-.528a1.59,1.59,0,0,1,1.856.723l1.52,2.628A1.6,1.6,0,0,1,32.5,8.776L31.2,9.967a9.312,9.312,0,0,1,0,2.07l1.289,1.185.006.006a1.6,1.6,0,0,1,.3,1.948l-1.529,2.645a1.585,1.585,0,0,1-1.849.716l-1.674-.529a8.44,8.44,0,0,1-1.791,1.041l-.387,1.718A1.587,1.587,0,0,1,24.024,22ZM17.4,16.557a.688.688,0,0,1,.437.157A7.061,7.061,0,0,0,19.878,17.9a.687.687,0,0,1,.433.494l.467,2.072a.206.206,0,0,0,.2.163h3.049a.2.2,0,0,0,.2-.161l.468-2.074a.687.687,0,0,1,.433-.494,7.074,7.074,0,0,0,2.044-1.186.685.685,0,0,1,.645-.126l2.018.637a.206.206,0,0,0,.243-.084L31.6,14.5a.224.224,0,0,0-.044-.265L30.01,12.808A.687.687,0,0,1,29.8,12.2a7.964,7.964,0,0,0,0-2.4.688.688,0,0,1,.215-.608l1.551-1.427A.224.224,0,0,0,31.6,7.5l-1.52-2.629a.21.21,0,0,0-.249-.092l-2.015.636a.686.686,0,0,1-.644-.126A7.062,7.062,0,0,0,25.125,4.1a.687.687,0,0,1-.433-.494l-.467-2.072a.21.21,0,0,0-.2-.161h-3.05a.2.2,0,0,0-.2.161l-.468,2.074a.688.688,0,0,1-.433.494A7.055,7.055,0,0,0,17.834,5.29a.69.69,0,0,1-.644.126l-2.018-.637a.208.208,0,0,0-.243.084L13.4,7.507a.225.225,0,0,0,.047.268L14.992,9.2a.687.687,0,0,1,.215.608,7.963,7.963,0,0,0,0,2.4.688.688,0,0,1-.215.608L13.44,14.236a.224.224,0,0,0-.036.27l1.52,2.628a.211.211,0,0,0,.249.092l2.015-.636A.669.669,0,0,1,17.4,16.557Z" transform="translate(0)" fill="#19647e"/></g></svg>