<svg xmlns="http://www.w3.org/2000/svg" width="32.933" height="29.357" viewBox="0 0 32.933 29.357">
  <g id="Grupo_139" data-name="Grupo 139" transform="translate(0.001 -27.798)">
    <g id="Grupo_136" data-name="Grupo 136" transform="translate(-0.001 27.798)">
      <g id="Grupo_135" data-name="Grupo 135" transform="translate(0 0)">
        <path id="Caminho_47" data-name="Caminho 47" d="M32.583,39.393,16.972,27.963a.856.856,0,0,0-1.011,0L.35,39.393a.856.856,0,0,0,1.011,1.381l15.105-11.06,15.105,11.06a.856.856,0,0,0,1.011-1.381Z" transform="translate(0.001 -27.798)" fill="#19647e"/>
      </g>
    </g>
    <g id="Grupo_138" data-name="Grupo 138" transform="translate(3.631 37.108)">
      <g id="Grupo_137" data-name="Grupo 137">
        <path id="Caminho_48" data-name="Caminho 48" d="M81.267,172.543a.856.856,0,0,0-.856.856v17.48H73.566v-7.435a4.279,4.279,0,1,0-8.558,0v7.435H58.163V173.4a.856.856,0,0,0-1.711,0v18.335a.856.856,0,0,0,.856.856h8.557a.855.855,0,0,0,.852-.789.647.647,0,0,0,0-.067v-8.291a2.567,2.567,0,0,1,5.135,0v8.291a.63.63,0,0,0,0,.066.855.855,0,0,0,.852.79h8.557a.856.856,0,0,0,.856-.856V173.4A.856.856,0,0,0,81.267,172.543Z" transform="translate(-56.452 -172.543)" fill="#19647e"/>
      </g>
    </g>
  </g>
</svg>
