<svg xmlns="http://www.w3.org/2000/svg" width="21" height="21" viewBox="0 0 21 21"><g transform="translate(-60 -719.6)"><path d="M318.073,301.513c-.059-.2-.3-.29-.554-.29a.535.535,0,0,0-.547.29l-1.272,4.145a.381.381,0,0,0-.013.066c0,.211.31.356.54.356.145,0,.257-.046.29-.171l.25-.877h1.509l.251.877c.033.125.145.171.29.171.231,0,.54-.151.54-.356a.291.291,0,0,0-.013-.066Zm-1.127,2.847.573-2.023.574,2.023Z" transform="translate(-242.739 430.731)" fill="#19647e"/><path d="M18.737,8.567h-6.3V5.874l2.049-1.463a.615.615,0,0,0,0-1L12.408,1.929A2.266,2.266,0,0,0,10.17,0H2.263A2.265,2.265,0,0,0,0,2.263v7.908a2.265,2.265,0,0,0,2.263,2.263h6.3v2.693L6.518,16.589a.615.615,0,0,0,0,1l2.074,1.481A2.266,2.266,0,0,0,10.83,21h7.908A2.265,2.265,0,0,0,21,18.737V10.83A2.265,2.265,0,0,0,18.737,8.567ZM2.263,11.2A1.033,1.033,0,0,1,1.23,10.17V2.263A1.033,1.033,0,0,1,2.263,1.23H10.17A1.033,1.033,0,0,1,11.2,2.263a.615.615,0,0,0,.258.5L13.066,3.91,11.46,5.057a.615.615,0,0,0-.258.5V8.567H10.83a2.265,2.265,0,0,0-2.263,2.263V11.2ZM19.77,18.737a1.033,1.033,0,0,1-1.032,1.032H10.83A1.033,1.033,0,0,1,9.8,18.737a.615.615,0,0,0-.258-.5L7.934,17.09,9.54,15.943a.615.615,0,0,0,.258-.5V10.83A1.033,1.033,0,0,1,10.83,9.8h7.908A1.033,1.033,0,0,1,19.77,10.83Z" transform="translate(60 719.6)" fill="#19647e"/><path d="M101.147,94.239a.347.347,0,0,0,0-.694H99.6V92.7a.347.347,0,1,0-.694,0v.842H97.367a.347.347,0,0,0,0,.694h.478a3.309,3.309,0,0,0,.868,1.908,2.612,2.612,0,0,1-1.346.372.347.347,0,0,0,0,.694,3.3,3.3,0,0,0,1.89-.593,3.3,3.3,0,0,0,1.89.593.347.347,0,0,0,0-.694,2.609,2.609,0,0,1-1.346-.372,3.309,3.309,0,0,0,.868-1.908Zm-1.89,1.474a2.62,2.62,0,0,1-.713-1.474H99.97A2.62,2.62,0,0,1,99.257,95.713Z" transform="translate(-33.041 631.033)" fill="#19647e"/></g></svg>