<svg xmlns="http://www.w3.org/2000/svg" width="32.835" height="29" viewBox="0 0 32.835 29">
  <g id="Grupo_144" data-name="Grupo 144" transform="translate(-0.656 -28.6)">
    <g id="Grupo_143" data-name="Grupo 143" transform="translate(0.657 28.6)">
      <path id="Caminho_51" data-name="Caminho 51" d="M16.421,28.6C7.362,28.6,0,35.1,0,43.1a13.465,13.465,0,0,0,3.332,8.757,5.335,5.335,0,0,1-1.965,2.333,1.253,1.253,0,0,0-.543,1.328,1.235,1.235,0,0,0,1.046.959,11.122,11.122,0,0,0,1.562.107,9.554,9.554,0,0,0,4.513-1.059A18.023,18.023,0,0,0,16.414,57.6c9.059,0,16.421-6.5,16.421-14.5S25.48,28.6,16.421,28.6Zm0,27.351a16.3,16.3,0,0,1-8.066-2.092.811.811,0,0,0-.409-.107.849.849,0,0,0-.422.114A7.949,7.949,0,0,1,3.1,54.925a7.347,7.347,0,0,0,1.965-2.95.831.831,0,0,0-.168-.845A11.675,11.675,0,0,1,1.643,43.1c0-7.087,6.631-12.854,14.778-12.854S31.2,36.009,31.2,43.1,24.568,55.951,16.421,55.951Z" transform="translate(0 -28.6)" fill="#19647e"/>
      <ellipse id="Elipse_28" data-name="Elipse 28" cx="1.07" cy="1.07" rx="1.07" ry="1.07" transform="translate(15.345 13.427)" fill="#19647e"/>
      <ellipse id="Elipse_29" data-name="Elipse 29" cx="1.07" cy="1.07" rx="1.07" ry="1.07" transform="translate(10.817 13.427)" fill="#19647e"/>
      <ellipse id="Elipse_30" data-name="Elipse 30" cx="1.07" cy="1.07" rx="1.07" ry="1.07" transform="translate(19.872 13.427)" fill="#19647e"/>
    </g>
  </g>
</svg>
