<svg xmlns="http://www.w3.org/2000/svg" width="14.329" height="18" viewBox="0 0 14.329 18"><g transform="translate(-66 -2.45)"><path d="M76.538,203.276H65.791A1.746,1.746,0,0,1,64,201.585v-7.893A1.746,1.746,0,0,1,65.791,192H76.538a1.746,1.746,0,0,1,1.791,1.691v7.893A1.746,1.746,0,0,1,76.538,203.276ZM65.791,193.128a.582.582,0,0,0-.6.564v7.893a.582.582,0,0,0,.6.564H76.538a.582.582,0,0,0,.6-.564v-7.893a.582.582,0,0,0-.6-.564Z" transform="translate(2 -182.826)" fill="#19647e"/><path d="M128.556,7.782A.556.556,0,0,1,128,7.227V4.447a4.447,4.447,0,0,1,8.894,0,.556.556,0,0,1-1.112,0,3.335,3.335,0,1,0-6.671,0V7.227A.556.556,0,0,1,128.556,7.782Z" transform="translate(-58.824 2.45)" fill="#19647e"/></g></svg>