<svg id="Grupo_148" data-name="Grupo 148" xmlns="http://www.w3.org/2000/svg" width="21.89" height="28" viewBox="0 0 21.89 28">
  <path id="Caminho_53" data-name="Caminho 53" d="M74.64,27.288V23.361a10.968,10.968,0,0,0-7.569-10.412,6.915,6.915,0,1,0-6.752,0A10.96,10.96,0,0,0,52.75,23.361v3.926a.712.712,0,0,0,.712.712H73.94A.713.713,0,0,0,74.64,27.288ZM58.194,6.915a5.5,5.5,0,1,1,5.5,5.5A5.5,5.5,0,0,1,58.194,6.915ZM73.222,26.575H54.157v-3.22a9.532,9.532,0,1,1,19.064,0Z" transform="translate(-52.75)" fill="#19647e"/>
</svg>
