<svg xmlns="http://www.w3.org/2000/svg" width="20.965" height="20.099" viewBox="0 0 20.965 20.099"><g transform="translate(0 -10.651)"><path d="M148.016,230.707a.685.685,0,0,1,.685-.685h13.247a.685.685,0,1,1,0,1.37H148.7A.685.685,0,0,1,148.016,230.707Z" transform="translate(-141.669 -209.964)" fill="#19647e"/><path d="M151.855,153.245l-3.654-3.654a.685.685,0,0,1,0-.969l3.654-3.654a.685.685,0,0,1,.969.969l-3.17,3.17,3.17,3.17a.685.685,0,1,1-.969.968Z" transform="translate(-141.654 -128.364)" fill="#19647e"/><path d="M0,20.7a10.05,10.05,0,0,1,19.4-3.676.685.685,0,1,1-1.275.5,8.679,8.679,0,1,0,0,6.351.685.685,0,1,1,1.275.5A10.05,10.05,0,0,1,0,20.7Z" fill="#19647e"/></g></svg>