<svg xmlns="http://www.w3.org/2000/svg" xmlns:xlink="http://www.w3.org/1999/xlink" width="40" height="40" viewBox="0 0 40 40"><defs><clipPath id="a"><rect width="40" height="40" fill="none"/></clipPath></defs><g clip-path="url(#a)"><circle cx="20" cy="20" r="20" fill="#feda4d"/><g transform="matrix(0.966, 0.259, -0.259, 0.966, 9.472, 4.459)"><g transform="translate(0 0.059)"><path d="M1.426,12.689,8.515,15.11a.627.627,0,0,0,.409-1.185L1.829,11.5a.849.849,0,0,1-.046-1.588L22.525,1.381a.848.848,0,0,1,1.108,1.108L15.1,23.236a.849.849,0,0,1-1.588-.046L11.2,16.427l7.375-8.693a.627.627,0,0,0-.955-.812l-7.6,8.969A.639.639,0,0,0,9.9,16.5l2.426,7.089a2.081,2.081,0,0,0,1.925,1.42h.066a2.081,2.081,0,0,0,1.941-1.3L24.792,2.964a2.066,2.066,0,0,0-.46-2.283A2.067,2.067,0,0,0,22.05.222L1.3,8.761a2.1,2.1,0,0,0,.123,3.928Z" transform="translate(0 -0.059)" fill="#19647e"/></g></g></g></svg>